<?xml version="1.0" encoding="UTF-8" standalone="no"?>
<!-- Created with Inkscape (http://www.inkscape.org/) -->

<svg
   xmlns:dc="http://purl.org/dc/elements/1.1/"
   xmlns:cc="http://creativecommons.org/ns#"
   xmlns:rdf="http://www.w3.org/1999/02/22-rdf-syntax-ns#"
   xmlns:svg="http://www.w3.org/2000/svg"
   xmlns="http://www.w3.org/2000/svg"
   xmlns:sodipodi="http://sodipodi.sourceforge.net/DTD/sodipodi-0.dtd"
   xmlns:inkscape="http://www.inkscape.org/namespaces/inkscape"
   width="691"
   height="279"
   viewBox="0 0 182.82744 73.818797"
   version="1.1"
   id="svg8"
   inkscape:version="0.92.1 r15371"
   sodipodi:docname="onyx logo inkscape.svg">
  <defs
     id="defs2" />
  <sodipodi:namedview
     id="base"
     pagecolor="#ffffff"
     bordercolor="#666666"
     borderopacity="1.0"
     inkscape:pageopacity="0.0"
     inkscape:pageshadow="2"
     inkscape:zoom="0.98994949"
     inkscape:cx="413.04032"
     inkscape:cy="247.34091"
     inkscape:document-units="mm"
     inkscape:current-layer="layer1"
     showgrid="false"
     units="px"
     showguides="true"
     inkscape:guide-bbox="true"
     inkscape:window-width="1366"
     inkscape:window-height="706"
     inkscape:window-x="-8"
     inkscape:window-y="-8"
     inkscape:window-maximized="1" />
  <metadata
     id="metadata5">
    <rdf:RDF>
      <cc:Work
         rdf:about="">
        <dc:format>image/svg+xml</dc:format>
        <dc:type
           rdf:resource="http://purl.org/dc/dcmitype/StillImage" />
        <dc:title></dc:title>
      </cc:Work>
    </rdf:RDF>
  </metadata>
  <g
     inkscape:label="Layer 1"
     inkscape:groupmode="layer"
     id="layer1"
     transform="translate(0,-223.18083)">
    <g
       id="g5299"
       transform="translate(0,32.279242)">
      <g
         transform="translate(0,-15.875004)"
         id="g5137">
        <g
           id="g5054">
          <path
             sodipodi:nodetypes="aczcsccza"
             inkscape:connector-curvature="0"
             id="path5047"
             d="m 59.590999,273.01146 c -7.524857,5.77149 -27.482149,7.35757 -27.482149,7.35757 0,0 -18.863913,-6.70536 -24.6354056,-14.23022 -5.7714926,-7.52486 -7.35757681,-27.48215 -7.35757681,-27.48215 0,0 6.70536551,-18.86391 14.23022141,-24.6354 7.524858,-5.77149 27.482149,-7.35758 27.482149,-7.35758 l 24.635406,14.23022 c 0,0 8.597392,18.08021 7.357576,27.48215 -1.239816,9.40194 -6.705362,18.86392 -14.230221,24.63541 z"
             style="opacity:1;fill:#353839;fill-opacity:1;stroke:none;stroke-width:0.20045212" />
          <path
             style="opacity:1;fill:#4a4e4f;fill-opacity:1;stroke:none;stroke-width:0.18146555"
             d="m 53.957575,266.72706 c -6.812114,5.22483 -24.879075,6.66068 -24.879075,6.66068 0,0 -17.077147,-6.07024 -22.3019701,-12.88235 -5.2248238,-6.81212 -6.66067691,-24.87909 -6.66067691,-24.87909 0,0 6.07024231,-17.07716 12.88235301,-22.30196 6.812113,-5.22481 28.830032,-6.66066 28.830032,-6.66066 l 24.635406,14.23022 c 0,0 1.498669,15.0198 0.376284,23.53122 -1.122378,8.51138 -6.070239,17.07714 -12.882353,22.30194 z"
             id="path5050"
             inkscape:connector-curvature="0"
             sodipodi:nodetypes="aczcsccza" />
        </g>
        <path
           style="opacity:1;fill:#fcfcfc;fill-opacity:1;stroke:none;stroke-width:3.1640017;stroke-miterlimit:4;stroke-dasharray:none;stroke-opacity:1"
           d="m 43.992724,213.96293 -18.444195,0.65132 -12.648771,15.72152 0.556603,21.58337 13.435256,14.80061 18.444195,-0.65075 12.648772,-15.72208 -0.556113,-21.5828 z m -2.985014,9.21004 8.744238,9.63356 0.36243,14.04744 -8.232633,10.2328 -12.004622,0.42354 -8.744732,-9.63359 -0.361954,-14.04743 8.232633,-10.23276 z"
           id="path5056"
           inkscape:connector-curvature="0" />
        <path
           inkscape:connector-curvature="0"
           id="path5065"
           d="m 43.992724,213.96293 v 0 l 5.759224,18.8436 0.36243,14.04744 -8.232633,10.2328 -14.990128,9.63298 v 0 l 18.444195,-0.65075 12.648772,-15.72208 -0.556113,-21.5828 z m 6.121654,32.89104 v 0 c 0,0 -0.36243,-14.04744 0,0 z"
           style="opacity:1;fill:#eee4e4;fill-opacity:1;stroke:none;stroke-width:3.1640017;stroke-miterlimit:4;stroke-dasharray:none;stroke-opacity:1"
           sodipodi:nodetypes="cccccccccccccc" />
      </g>
      <g
         transform="translate(-3.1750001)"
         id="g5260">
        <g
           id="g5152"
           transform="matrix(0.93164849,0,0,0.93164849,15.02811,1.7081183)">
          <g
             transform="matrix(1.5695583,0,0,1.0306459,-42.223975,4.3786908)"
             id="g5141">
            <path
               inkscape:connector-curvature="0"
               id="path5121"
               d="m 91.410833,213.27054 -10.248179,0.48198 -7.028058,11.63408 0.309265,15.97189 7.465051,10.95259 10.248185,-0.48156 7.028058,-11.63448 -0.308993,-15.97148 z m -1.658566,6.81552 4.858577,7.12892 0.201378,10.39524 -4.574316,7.57237 -6.67015,0.31342 -4.85885,-7.12895 -0.201116,-10.39523 4.574316,-7.57234 z"
               style="opacity:1;fill:#000000;fill-opacity:1;stroke:none;stroke-width:2.02884483;stroke-miterlimit:4;stroke-dasharray:none;stroke-opacity:1" />
            <path
               sodipodi:nodetypes="cccccccccccccccc"
               style="opacity:1;fill:#464646;fill-opacity:1;stroke:none;stroke-width:2.02884483;stroke-miterlimit:4;stroke-dasharray:none;stroke-opacity:1"
               d="m 91.410833,213.27054 v 0 l -1.658566,6.81552 4.858577,7.12892 0.201378,10.39524 -4.574316,7.57237 -6.67015,0.31342 -1.658844,6.81507 v 0 l 10.248185,-0.48156 7.028058,-11.63448 -0.308993,-15.97148 z m 3.401389,24.33968 v 0 c 0,0 -0.201378,-10.39524 0,0 z"
               id="path5123"
               inkscape:connector-curvature="0" />
          </g>
          <g
             aria-label="nyx"
             transform="matrix(0.26458333,0,0,0.26458333,-26.53393,217.24701)"
             style="font-style:normal;font-variant:normal;font-weight:normal;font-stretch:normal;font-size:32px;line-height:25px;font-family:Melbourne;-inkscape-font-specification:Melbourne;letter-spacing:0px;word-spacing:0px;fill:#000000;fill-opacity:1;stroke:none"
             id="flowRoot5154">
            <path
               inkscape:connector-curvature="0"
               d="m 615.64161,177.63288 h -25.81867 v -31.86134 q 0,-2.884 -2.472,-3.43333 -0.13734,0 -5.08134,0 h -15.79333 q -4.944,0 -5.08134,0 -2.472,0.54933 -2.472,3.43333 v 31.86134 h -25.956 v -52.59867 h 25.956 v 3.43333 q 2.33467,-3.43333 9.88801,-3.43333 h 20.73733 q 9.064,0 13.32133,0.824 12.77201,2.06 12.77201,15.38133 z"
               style="font-style:normal;font-variant:normal;font-weight:normal;font-stretch:normal;font-size:137.33334351px;font-family:Vipnagorgialla;-inkscape-font-specification:Vipnagorgialla"
               id="path5172" />
            <path
               inkscape:connector-curvature="0"
               d="m 702.33328,184.77421 q 0,7.27867 -3.02133,10.84933 -3.02134,3.57067 -10.16267,4.66934 -4.66934,0.68666 -12.90934,0.68666 h -14.14533 v -17.304 h 6.592 q 5.21867,0 5.21867,0 2.472,-0.412 2.472,-3.43333 v -2.60933 h -28.15334 q -8.10267,0 -12.90933,-0.68667 -7.14134,-1.09867 -10.16267,-4.66933 -2.884,-3.708 -2.884,-10.98667 v -36.256 h 25.956 v 31.86133 q 0,2.884 2.33467,3.296 0,0 5.08133,0 h 20.73734 v -35.15733 h 25.956 z"
               style="font-style:normal;font-variant:normal;font-weight:normal;font-stretch:normal;font-size:137.33334351px;font-family:Vipnagorgialla;-inkscape-font-specification:Vipnagorgialla"
               id="path5174" />
            <path
               inkscape:connector-curvature="0"
               d="m 793.62132,177.63288 h -34.74533 l -10.712,-10.02534 -10.712,10.02534 h -34.88267 l 28.56533,-25.95601 -28.29067,-26.64266 h 33.23467 l 12.08534,10.98666 12.08533,-10.98666 h 33.09734 l -28.29067,26.64266 z"
               style="font-style:normal;font-variant:normal;font-weight:normal;font-stretch:normal;font-size:137.33334351px;font-family:Vipnagorgialla;-inkscape-font-specification:Vipnagorgialla"
               id="path5176" />
          </g>
        </g>
        <g
           aria-label="The Octo-grid Framework"
           transform="matrix(0.26458333,0,0,0.26458333,25.167268,196.76857)"
           style="font-style:normal;font-variant:normal;font-weight:normal;font-stretch:normal;font-size:32px;line-height:25px;font-family:Melbourne;-inkscape-font-specification:Melbourne;letter-spacing:0px;word-spacing:0px;fill:#000000;fill-opacity:1;stroke:none"
           id="flowRoot5179">
          <path
             inkscape:connector-curvature="0"
             d="m 293.792,224.24627 c 0.32,0 0.32,-0.32 0.32,-0.32 v -1.248 c 0,0 0,-0.288 -0.32,-0.288 H 281.6 c -0.32,0 -0.32,0.32 -0.32,0.32 v 1.248 c 0,0 0,0.288 0.32,0.288 h 5.12 v 20.224 c 0,0.32 0.32,0.32 0.32,0.32 h 1.344 c 0,0 0.288,0 0.288,-0.32 v -20.224 z"
             id="path5187" />
          <path
             inkscape:connector-curvature="0"
             d="m 298.381,234.00627 c 0,-2.208 1.216,-3.648 3.392,-3.648 2.144,0 3.136,1.76 3.136,3.648 v 10.464 c 0,0.32 0.32,0.32 0.32,0.32 h 1.248 c 0,0 0.288,0 0.288,-0.32 v -10.464 c 0,-3.648 -1.888,-5.44 -4.992,-5.44 -1.344,0 -2.816,0.32 -3.392,1.28 v -7.136 c 0,-0.32 -0.32,-0.32 -0.32,-0.32 h -1.248 c 0,0 -0.288,0 -0.288,0.32 v 21.76 c 0,0.32 0.32,0.32 0.32,0.32 h 1.216 c 0,0 0.32,0 0.32,-0.32 z"
             id="path5189" />
          <path
             inkscape:connector-curvature="0"
             d="m 321.099,239.83027 c 0,0 -1.472,0 -1.472,0 0,0 -0.192,0.064 -0.192,0.224 0,1.952 -1.248,3.168 -3.328,3.168 -2.048,0 -3.2,-1.376 -3.296,-3.168 0,0 0,-1.184 0,-1.728 l 7.36,-1.376 c 0.8,-0.16 1.088,-0.704 1.088,-1.248 v -2.848 c 0,-2.432 -2.112,-4.288 -4.896,-4.288 -3.36,0 -5.408,2.272 -5.408,5.344 v 6.144 c 0,2.848 2.112,4.96 5.152,4.96 3.04,0 5.152,-1.76 5.152,-4.96 0,-0.16 -0.16,-0.224 -0.16,-0.224 z m -1.696,-4.576 -6.592,1.248 v -2.592 c 0,-1.952 0.896,-3.552 3.392,-3.552 1.888,0 3.2,0.896 3.2,2.56 z"
             id="path5191" />
          <path
             inkscape:connector-curvature="0"
             d="m 338.6705,222.16627 c -4.576,0 -6.368,3.136 -6.368,7.04 0,0.064 0,8.8 0,8.8 0,3.904 1.792,7.008 6.368,7.008 4.576,0 6.368,-3.104 6.368,-7.008 0,0 0,-8.736 0,-8.8 0,-3.904 -1.792,-7.04 -6.368,-7.04 z m 0,1.856 c 2.72,0 4.416,1.6 4.416,5.184 v 8.8 c 0,3.584 -1.696,5.152 -4.416,5.152 -2.72,0 -4.416,-1.568 -4.416,-5.152 v -8.8 c 0,-3.584 1.696,-5.184 4.416,-5.184 z"
             id="path5193" />
          <path
             inkscape:connector-curvature="0"
             d="m 357.266,239.79827 c 0,1.504 -0.928,3.424 -3.2,3.424 -2.208,0 -3.36,-1.696 -3.36,-3.968 v -4.736 c 0,-2.784 1.056,-4.16 3.36,-4.16 2.112,0 2.912,1.44 3.04,2.592 0.032,0.224 0.16,0.32 0.352,0.256 l 1.184,-0.32 c 0.256,-0.096 0.224,-0.256 0.192,-0.416 -0.512,-3.232 -2.912,-3.904 -4.768,-3.904 -3.136,0 -5.216,1.664 -5.216,5.888 v 4.8 c 0,3.968 2.08,5.76 5.216,5.76 3.52,0 5.056,-2.656 5.056,-5.152 0,-0.288 -0.16,-0.416 -0.416,-0.416 h -1.12 c 0,0 -0.32,0 -0.32,0.352 z"
             id="path5195" />
          <path
             inkscape:connector-curvature="0"
             d="m 368.686,244.79027 c 0.32,0 0.32,-0.32 0.32,-0.32 v -1.184 c 0,0 0,-0.288 -0.32,-0.288 h -0.192 c -2.144,-0.032 -3.072,-0.544 -3.072,-3.072 v -9.056 h 3.36 c 0.32,0 0.32,-0.32 0.32,-0.32 v -1.184 c 0,0 0,-0.288 -0.32,-0.288 h -3.36 v -5.728 c 0,-0.32 -0.32,-0.32 -0.32,-0.32 h -1.248 c 0,0 -0.288,0 -0.288,0.32 v 5.728 h -1.376 c -0.32,0 -0.32,0.32 -0.32,0.32 v 1.184 c 0,0 0,0.288 0.32,0.288 h 1.376 v 9.056 c 0,3.584 1.76,4.864 4.928,4.864 z"
             id="path5197" />
          <path
             inkscape:connector-curvature="0"
             d="m 377.3145,243.22227 c -1.888,0 -3.296,-1.44 -3.296,-3.936 v -4.8 c 0,-3.136 1.376,-4.128 3.296,-4.128 1.92,0 3.296,0.992 3.296,4.128 v 4.8 c 0,2.496 -1.408,3.936 -3.296,3.936 z m 0,-14.656 c -3.488,0 -5.152,2.112 -5.152,5.92 v 4.768 c 0,3.488 1.568,5.76 5.152,5.76 3.584,0 5.152,-2.272 5.152,-5.76 v -4.768 c 0,-3.808 -1.664,-5.92 -5.152,-5.92 z"
             id="path5199" />
          <path
             inkscape:connector-curvature="0"
             d="m 396.20312,236.02465 h -9.75 v -2.82813 h 9.75 z"
             id="path5201" />
          <path
             inkscape:connector-curvature="0"
             d="m 409.665,239.83027 c 0,2.304 -1.504,3.392 -3.584,3.392 -1.76,0 -3.04,-1.504 -3.04,-3.392 v -5.856 c 0,-2.176 1.024,-3.616 3.168,-3.616 1.536,0 3.456,0.832 3.456,3.616 z m 0,6.656 c 0,2.752 -1.632,3.296 -3.328,3.296 -2.752,0 -3.296,-1.696 -3.296,-3.392 0,-0.32 -0.32,-0.32 -0.32,-0.32 h -1.184 c 0,0 -0.288,0 -0.288,0.32 0,3.2 1.792,5.184 5.088,5.184 3.2,0 5.184,-1.792 5.184,-5.088 v -17.6 c 0,-0.192 -0.128,-0.32 -0.288,-0.32 h -1.28 c 0,0 -0.288,0 -0.288,0.32 v 1.152 c -0.576,-0.928 -2.208,-1.472 -3.456,-1.472 -3.36,0 -5.024,2.432 -5.024,5.408 0,0.832 0,5.856 0,5.856 0,2.944 2.016,5.184 4.896,5.184 1.12,0 2.56,-0.288 3.584,-1.664 z"
             id="path5203" />
          <path
             inkscape:connector-curvature="0"
             d="m 421.6145,230.42227 c 0.32,0 0.32,-0.352 0.32,-0.352 v -1.184 c 0,0 0,-0.32 -0.32,-0.32 -1.152,0 -2.784,0.32 -3.456,1.472 v -0.928 c 0,-0.32 -0.352,-0.32 -0.352,-0.32 h -1.184 c 0,0 -0.32,0 -0.32,0.32 v 15.36 c 0,0.32 0.32,0.32 0.32,0.32 h 1.184 c 0,0 0.352,0 0.352,-0.32 v -10.368 c 0,-2.4 1.056,-3.68 3.456,-3.68 z"
             id="path5205" />
          <path
             inkscape:connector-curvature="0"
             d="m 425.1545,244.47027 c 0,0.32 0.32,0.32 0.32,0.32 h 1.248 c 0,0 0.288,0 0.288,-0.32 v -15.36 c 0,-0.32 -0.32,-0.32 -0.32,-0.32 h -1.248 c 0,0 -0.288,0 -0.288,0.32 z m 2.08,-21.76 c 0,-0.32 -0.32,-0.32 -0.32,-0.32 h -1.664 c 0,0 -0.288,0 -0.288,0.32 v 2.08 c 0,0.32 0.32,0.32 0.32,0.32 h 1.664 c 0,0 0.288,0 0.288,-0.32 z"
             id="path5207" />
          <path
             inkscape:connector-curvature="0"
             d="m 441.561,222.71027 c 0,-0.192 -0.128,-0.32 -0.288,-0.32 h -1.28 c 0,0 -0.288,0 -0.288,0.32 v 7.328 c -0.576,-0.928 -2.208,-1.472 -3.456,-1.472 -3.36,0 -5.024,2.432 -5.024,5.408 0,0.832 0,5.856 0,5.856 0,2.944 2.016,5.184 4.896,5.184 1.12,0 2.56,-0.288 3.584,-1.664 v 1.12 c 0,0.32 0.288,0.32 0.288,0.32 h 1.248 c 0,0 0.32,0 0.32,-0.32 z m -1.856,17.12 c 0,2.304 -1.504,3.392 -3.584,3.392 -1.76,0 -3.04,-1.504 -3.04,-3.392 v -5.856 c 0,-2.176 1.024,-3.616 3.168,-3.616 1.536,0 3.456,0.832 3.456,3.616 z"
             id="path5209" />
          <path
             inkscape:connector-curvature="0"
             d="m 455.0745,244.47027 v -10.016 h 6.464 c 0.288,0 0.32,-0.288 0.32,-0.288 v -1.28 c 0,0 0,-0.288 -0.32,-0.288 h -6.464 v -8.352 h 8.704 c 0.288,0 0.32,-0.288 0.32,-0.288 v -1.28 c 0,0 0,-0.288 -0.32,-0.288 h -10.656 v 22.08 c 0,0.32 0.32,0.32 0.32,0.32 h 1.312 c 0,0 0.288,0 0.32,-0.32 z"
             id="path5211" />
          <path
             inkscape:connector-curvature="0"
             d="m 471.802,230.42227 c 0.32,0 0.32,-0.352 0.32,-0.352 v -1.184 c 0,0 0,-0.32 -0.32,-0.32 -1.152,0 -2.784,0.32 -3.456,1.472 v -0.928 c 0,-0.32 -0.352,-0.32 -0.352,-0.32 h -1.184 c 0,0 -0.32,0 -0.32,0.32 v 15.36 c 0,0.32 0.32,0.32 0.32,0.32 h 1.184 c 0,0 0.352,0 0.352,-0.32 v -10.368 c 0,-2.4 1.056,-3.68 3.456,-3.68 z"
             id="path5213" />
          <path
             inkscape:connector-curvature="0"
             d="m 478.894,245.01427 c 1.12,0 2.688,-0.288 3.712,-1.664 v 1.12 c 0,0.32 0.32,0.32 0.32,0.32 h 1.248 c 0,0 0.288,0 0.288,-0.32 v -10.464 c 0,-3.712 -2.4,-5.44 -5.024,-5.44 -2.752,0 -4.864,1.76 -4.864,4.544 0,0.16 0.16,0.224 0.16,0.224 h 1.536 c 0,0 0.192,-0.064 0.192,-0.224 0,-1.664 1.056,-2.752 2.976,-2.752 1.856,0 3.072,1.344 3.168,3.136 v 1.76 l -4.64,1.088 c -2.88,0.704 -3.776,2.4 -3.776,4.768 0,2.304 1.728,3.904 4.704,3.904 z m 0,-1.792 c -1.728,0 -2.848,-0.8 -2.848,-2.304 0,-0.832 0.256,-2.304 2.112,-2.72 l 4.448,-1.024 v 2.336 c 0,1.92 -1.536,3.712 -3.712,3.712 z"
             id="path5215" />
          <path
             inkscape:connector-curvature="0"
             d="m 493.8905,228.56627 c -1.376,0 -2.688,0.576 -3.232,1.472 v -0.928 c 0,-0.32 -0.288,-0.32 -0.288,-0.32 h -1.28 c 0,0 -0.288,0 -0.288,0.32 v 15.36 c 0,0.32 0.32,0.32 0.32,0.32 h 1.184 c 0,0 0.352,0 0.352,-0.32 v -10.528 c 0,-1.696 0.64,-3.584 3.2,-3.584 1.984,0 2.784,1.312 2.784,2.592 v 11.52 c 0,0.32 0.32,0.32 0.32,0.32 h 1.152 c 0,0 0.32,0 0.32,-0.32 v -11.52 c 0,-1.568 1.056,-2.592 2.4,-2.592 2.208,0 3.104,1.504 3.104,3.584 v 10.528 c 0,0.32 0.32,0.32 0.32,0.32 h 1.216 c 0,0 0.32,0 0.32,-0.32 v -10.528 c 0,-4.32 -2.528,-5.376 -4.96,-5.376 -1.248,0 -2.56,0.48 -3.296,1.536 -0.768,-1.152 -2.24,-1.536 -3.648,-1.536 z"
             id="path5217" />
          <path
             inkscape:connector-curvature="0"
             d="m 519.7865,239.83027 c 0,0 -1.472,0 -1.472,0 0,0 -0.192,0.064 -0.192,0.224 0,1.952 -1.248,3.168 -3.328,3.168 -2.048,0 -3.2,-1.376 -3.296,-3.168 0,0 0,-1.184 0,-1.728 l 7.36,-1.376 c 0.8,-0.16 1.088,-0.704 1.088,-1.248 v -2.848 c 0,-2.432 -2.112,-4.288 -4.896,-4.288 -3.36,0 -5.408,2.272 -5.408,5.344 v 6.144 c 0,2.848 2.112,4.96 5.152,4.96 3.04,0 5.152,-1.76 5.152,-4.96 0,-0.16 -0.16,-0.224 -0.16,-0.224 z m -1.696,-4.576 -6.592,1.248 v -2.592 c 0,-1.952 0.896,-3.552 3.392,-3.552 1.888,0 3.2,0.896 3.2,2.56 z"
             id="path5219" />
          <path
             inkscape:connector-curvature="0"
             d="m 533.232,229.11027 c -0.096,-0.32 -0.256,-0.32 -0.352,-0.32 h -1.728 c -0.096,0 -0.256,0 -0.352,0.32 l -3.264,12.48 -2.56,-12.48 c -0.064,-0.32 -0.32,-0.32 -0.32,-0.32 h -1.44 c 0,0 -0.32,0 -0.224,0.32 l 3.552,15.36 c 0.064,0.32 0.32,0.32 0.32,0.32 h 1.312 c 0,0 0.256,0 0.32,-0.32 l 3.52,-13.536 3.552,13.536 c 0.064,0.32 0.32,0.32 0.32,0.32 h 1.312 c 0,0 0.256,0 0.32,-0.32 l 3.52,-15.36 c 0.064,-0.32 -0.224,-0.32 -0.224,-0.32 h -1.44 c 0,0 -0.256,0 -0.32,0.32 l -2.496,12.48 z"
             id="path5221" />
          <path
             inkscape:connector-curvature="0"
             d="m 548.8145,243.22227 c -1.888,0 -3.296,-1.44 -3.296,-3.936 v -4.8 c 0,-3.136 1.376,-4.128 3.296,-4.128 1.92,0 3.296,0.992 3.296,4.128 v 4.8 c 0,2.496 -1.408,3.936 -3.296,3.936 z m 0,-14.656 c -3.488,0 -5.152,2.112 -5.152,5.92 v 4.768 c 0,3.488 1.568,5.76 5.152,5.76 3.584,0 5.152,-2.272 5.152,-5.76 v -4.768 c 0,-3.808 -1.664,-5.92 -5.152,-5.92 z"
             id="path5223" />
          <path
             inkscape:connector-curvature="0"
             d="m 563.1145,230.42227 c 0.32,0 0.32,-0.352 0.32,-0.352 v -1.184 c 0,0 0,-0.32 -0.32,-0.32 -1.152,0 -2.784,0.32 -3.456,1.472 v -0.928 c 0,-0.32 -0.352,-0.32 -0.352,-0.32 h -1.184 c 0,0 -0.32,0 -0.32,0.32 v 15.36 c 0,0.32 0.32,0.32 0.32,0.32 h 1.184 c 0,0 0.352,0 0.352,-0.32 v -10.368 c 0,-2.4 1.056,-3.68 3.456,-3.68 z"
             id="path5225" />
          <path
             inkscape:connector-curvature="0"
             d="m 571.2945,234.90227 4.864,-5.888 c 0.16,-0.192 -0.064,-0.224 -0.192,-0.224 h -1.568 c 0,0 -0.224,0 -0.352,0.192 l -5.888,6.944 v -13.216 c 0,-0.32 -0.32,-0.32 -0.32,-0.32 h -1.248 c 0,0 -0.288,0 -0.288,0.32 v 21.76 c 0,0.32 0.288,0.32 0.288,0.32 h 1.28 c 0,0 0.288,0 0.288,-0.32 v -5.856 l 1.92,-2.368 5.024,8.352 c 0.128,0.192 0.288,0.192 0.288,0.192 h 1.44 c 0.128,0 0.32,-0.032 0.192,-0.224 z"
             id="path5227" />
        </g>
      </g>
    </g>
  </g>
</svg>
